# xmcd
#
# Track frame offsets:
#	150
#	13299
#	27834
#	43155
#	53658
#	66234
#	78826
#	91075
#	111154
#	121757
#
# Disc length: 1760 seconds
#
# Revision: 1
# Processed by: cddbd v1.5.2PL0 Copyright (c) Steve Scherf et al.
# Submitted via: audiograbber 1.83.01
#
DISCID=7706de0a
DTITLE=Glen Campbell - I Knew Jesus (Before He Was a Star)
DYEAR=1973
DGENRE=Country
TTITLE0=I Knew Jesus (Before He Was a Star)
TTITLE1=I Take It on Home
TTITLE2=Sold American
TTITLE3=I Want to Be with You Always
TTITLE4=If Not for You
TTITLE5=Give Me Back That Old Familiar Feeling
TTITLE6=You're the One
TTITLE7=Amazing Grace
TTITLE8=On This Road
TTITLE9=Someday Soon
EXTD=
EXTT0=
EXTT1=
EXTT2=
EXTT3=
EXTT4=
EXTT5=
EXTT6=
EXTT7=
EXTT8=
EXTT9=
PLAYORDER=
